<svg width="206" height="206" viewBox="0 0 206 206" fill="none" xmlns="http://www.w3.org/2000/svg">
<circle cx="103" cy="103" r="101.5" fill="#2A292D" stroke="#F0EDF9" stroke-width="3"/>
<g filter="url(#filter0_d)">
<path d="M14.2693 107.212L28.1653 98.212V103L18.6253 108.976V109.12L28.1653 115.096V119.884L14.2693 110.884V107.212ZM36.9593 90.088C36.9593 84.904 37.7273 80.296 39.2633 76.264C40.7993 72.168 42.9113 68.712 45.5993 65.896C48.2873 63.08 51.4553 60.936 55.1033 59.464C58.7513 57.992 62.6553 57.256 66.8153 57.256C70.8473 57.256 74.3993 58.088 77.4713 59.752C80.6073 61.352 83.2313 63.176 85.3433 65.224L77.5673 73.96C76.0953 72.616 74.4953 71.528 72.7673 70.696C71.0393 69.864 69.0553 69.448 66.8153 69.448C64.5753 69.448 62.5273 69.928 60.6713 70.888C58.8153 71.784 57.1833 73.096 55.7753 74.824C54.4313 76.552 53.3753 78.664 52.6073 81.16C51.8393 83.656 51.4553 86.472 51.4553 89.608C51.4553 96.072 52.9273 101.096 55.8713 104.68C58.8153 108.2 62.6553 109.96 67.3913 109.96C69.6313 109.96 71.6473 109.448 73.4393 108.424C75.2953 107.4 76.9913 106.056 78.5273 104.392L86.3033 112.936C81.0553 119.08 74.4633 122.152 66.5273 122.152C62.4953 122.152 58.6873 121.48 55.1033 120.136C51.5193 118.728 48.3833 116.68 45.6953 113.992C43.0073 111.304 40.8633 107.976 39.2633 104.008C37.7273 99.976 36.9593 95.336 36.9593 90.088Z" fill="#F0EDF9"/>
</g>
<g filter="url(#filter1_d)">
<path d="M91.544 84.408H105.944L107.96 117.72C108.024 120.408 108.088 123.064 108.152 125.688C108.216 128.312 108.28 130.968 108.344 133.656H108.632C109.144 130.968 109.688 128.312 110.264 125.688C110.904 123.064 111.48 120.408 111.992 117.72L116.312 100.344H124.856L128.984 117.72C129.496 120.28 130.04 122.904 130.616 125.592C131.192 128.28 131.736 130.968 132.248 133.656H132.632C132.76 130.968 132.824 128.312 132.824 125.688C132.888 123 132.984 120.344 133.112 117.72L134.936 84.408H148.376L140.6 147H125.816L121.88 127.32C121.496 125.336 121.144 123.32 120.824 121.272C120.504 119.16 120.28 117.176 120.152 115.32H119.864C119.672 117.176 119.416 119.16 119.096 121.272C118.84 123.32 118.52 125.336 118.136 127.32L114.392 147H99.896L91.544 84.408ZM155.814 152.76H151.386L163.23 121.44H167.658L155.814 152.76ZM187.732 136.884L173.836 145.884V141.096L183.376 135.12V134.976L173.836 129V124.212L187.732 133.212V136.884Z" fill="#F0EDF9"/>
</g>
<defs>
<filter id="filter0_d" x="9.26935" y="52.256" width="92.0339" height="84.896" filterUnits="userSpaceOnUse" color-interpolation-filters="sRGB">
<feFlood flood-opacity="0" result="BackgroundImageFix"/>
<feColorMatrix in="SourceAlpha" type="matrix" values="0 0 0 0 0 0 0 0 0 0 0 0 0 0 0 0 0 0 127 0"/>
<feOffset dx="5" dy="5"/>
<feGaussianBlur stdDeviation="5"/>
<feColorMatrix type="matrix" values="0 0 0 0 0.941176 0 0 0 0 0.929412 0 0 0 0 0.976471 0 0 0 0.25 0"/>
<feBlend mode="normal" in2="BackgroundImageFix" result="effect1_dropShadow"/>
<feBlend mode="normal" in="SourceGraphic" in2="effect1_dropShadow" result="shape"/>
</filter>
<filter id="filter1_d" x="86.5439" y="79.408" width="116.188" height="88.352" filterUnits="userSpaceOnUse" color-interpolation-filters="sRGB">
<feFlood flood-opacity="0" result="BackgroundImageFix"/>
<feColorMatrix in="SourceAlpha" type="matrix" values="0 0 0 0 0 0 0 0 0 0 0 0 0 0 0 0 0 0 127 0"/>
<feOffset dx="5" dy="5"/>
<feGaussianBlur stdDeviation="5"/>
<feColorMatrix type="matrix" values="0 0 0 0 0.941176 0 0 0 0 0.929412 0 0 0 0 0.976471 0 0 0 0.25 0"/>
<feBlend mode="normal" in2="BackgroundImageFix" result="effect1_dropShadow"/>
<feBlend mode="normal" in="SourceGraphic" in2="effect1_dropShadow" result="shape"/>
</filter>
</defs>
</svg>
